<?xml version="1.0" encoding="UTF-8"?>
<svg xmlns="http://www.w3.org/2000/svg" width="512" height="512" viewBox="0 0 512 512">
  <polygon points="256.0,97.3 421.8,217.2 256.0,280.7" fill="#f5f5f7" fill-opacity="0.85" />
  <polygon points="256.0,97.3 256.0,280.7 90.2,217.2" fill="#f5f5f7" fill-opacity="0.7" />
  <polygon points="421.8,217.2 358.3,432.3 256.0,280.7" fill="#9ca3af" fill-opacity="0.55" />
  <polygon points="90.2,217.2 256.0,280.7 153.7,432.3" fill="#9ca3af" fill-opacity="0.45" />
  <polygon points="256.0,280.7 358.3,432.3 153.7,432.3" fill="#374151" fill-opacity="0.7" />
  <line x1="256.0" y1="97.3" x2="256.0" y2="280.7" stroke="#f5f5f7" stroke-width="2.56" stroke-opacity="0.55" stroke-linecap="round" />
  <line x1="421.8" y1="217.2" x2="256.0" y2="280.7" stroke="#f5f5f7" stroke-width="2.56" stroke-opacity="0.55" stroke-linecap="round" />
  <line x1="358.3" y1="432.3" x2="256.0" y2="280.7" stroke="#f5f5f7" stroke-width="2.56" stroke-opacity="0.55" stroke-linecap="round" />
  <line x1="153.7" y1="432.3" x2="256.0" y2="280.7" stroke="#f5f5f7" stroke-width="2.56" stroke-opacity="0.55" stroke-linecap="round" />
  <line x1="90.2" y1="217.2" x2="256.0" y2="280.7" stroke="#f5f5f7" stroke-width="2.56" stroke-opacity="0.55" stroke-linecap="round" />
  <polygon points="256.0,97.3 421.8,217.2 358.3,432.3 153.7,432.3 90.2,217.2" fill="none" stroke="#f5f5f7" stroke-width="7.168" stroke-linejoin="round" />
</svg>